<?xml version="1.0" encoding="UTF-8"?>
<svg id="uuid-f91924bd-54cc-4db7-8366-ba07357665e5" data-name="uuid-5e2e8249-8a0f-4ea3-b30f-2896300476be" xmlns="http://www.w3.org/2000/svg" viewBox="0 0 384.01 384.01">
  <path d="M342.31,14.64H41.69c-14.94,0-27.05,12.11-27.05,27.05v300.64c0,14.94,12.11,27.05,27.05,27.05h300.64c14.94,0,27.05-12.11,27.05-27.05V41.69c0-14.94-12.11-27.05-27.05-27.05h0ZM224.13,294.41l-33.76-75.42v-60.16h5.49c14.62,0,21.94-6.28,21.94-18.85,0-11.09-8.46-16.63-25.37-16.63h-12.34v171.06h-69.59V60.45h89.3c27.2,0,48.28,6.74,63.25,20.22,16.68,15.08,25.02,34.23,25.02,57.42s-10.35,43.59-31.02,59.82l40.11,96.5h-73.03,0Z" style="stroke-width: 0px;"/>
</svg>